<mxfile host="Electron" agent="Mozilla/5.0 (Windows NT 10.0; Win64; x64) AppleWebKit/537.36 (KHTML, like Gecko) draw.io/28.1.2 Chrome/138.0.7204.243 Electron/37.4.0 Safari/537.36" version="28.1.2" pages="4">
  <diagram name="Overview" id="gyDN8xmJq9cGO3GvEnbL">
    <mxGraphModel dx="1426" dy="841" grid="1" gridSize="10" guides="1" tooltips="1" connect="1" arrows="1" fold="1" page="1" pageScale="1" pageWidth="1100" pageHeight="850" background="none" math="0" shadow="0">
      <root>
        <mxCell id="iCJ9TH8GzqM0QcMqVKSq-0" />
        <mxCell id="iCJ9TH8GzqM0QcMqVKSq-1" parent="iCJ9TH8GzqM0QcMqVKSq-0" />
        <mxCell id="RgOVxA6ob6zA1to62i2F-2" value="&lt;h2 style=&quot;box-sizing: border-box; margin: 0px; order: 1; line-height: 1.4285; color: rgb(31, 35, 40); font-family: -apple-system, BlinkMacSystemFont, &amp;quot;Segoe UI&amp;quot;, &amp;quot;Noto Sans&amp;quot;, Helvetica, Arial, sans-serif, &amp;quot;Apple Color Emoji&amp;quot;, &amp;quot;Segoe UI Emoji&amp;quot;; --custom-font-size: 2rem;&quot; data-hidden=&quot;false&quot; data-component=&quot;PH_Title&quot; class=&quot;Box-sc-g0xbh4-0 gDzpXv prc-PageHeader-Title-LKOsd HeaderViewer-module__PageHeader_Title--FtJ26 prc-Heading-Heading-6CmGO&quot;&gt;&lt;bdi style=&quot;box-sizing: border-box; display: inline; word-break: break-word; margin-right: 8px;&quot; data-testid=&quot;issue-title&quot; class=&quot;Box-sc-g0xbh4-0 hjDqIa markdown-title HeaderViewer-module__VerifiedHTMLBox--EQCNM&quot;&gt;MSDFS&lt;/bdi&gt;&lt;/h2&gt;&lt;h2 style=&quot;box-sizing: border-box; margin: 0px; order: 1; line-height: 1.4285; color: rgb(31, 35, 40); font-family: -apple-system, BlinkMacSystemFont, &amp;quot;Segoe UI&amp;quot;, &amp;quot;Noto Sans&amp;quot;, Helvetica, Arial, sans-serif, &amp;quot;Apple Color Emoji&amp;quot;, &amp;quot;Segoe UI Emoji&amp;quot;; --custom-font-size: 2rem;&quot; data-hidden=&quot;false&quot; data-component=&quot;PH_Title&quot; class=&quot;Box-sc-g0xbh4-0 gDzpXv prc-PageHeader-Title-LKOsd HeaderViewer-module__PageHeader_Title--FtJ26 prc-Heading-Heading-6CmGO&quot;&gt;&lt;bdi style=&quot;box-sizing: border-box; display: inline; word-break: break-word; margin-right: 8px;&quot; data-testid=&quot;issue-title&quot; class=&quot;Box-sc-g0xbh4-0 hjDqIa markdown-title HeaderViewer-module__VerifiedHTMLBox--EQCNM&quot;&gt;Part1. 基本編&lt;/bdi&gt;&lt;/h2&gt;" style="rounded=1;whiteSpace=wrap;html=1;fontSize=10;fillColor=#d5e8d4;strokeColor=#82b366;labelBackgroundColor=none;fontStyle=1;strokeWidth=3;align=center;" parent="iCJ9TH8GzqM0QcMqVKSq-1" vertex="1">
          <mxGeometry x="320" y="500" width="220" height="60" as="geometry" />
        </mxCell>
        <mxCell id="RgOVxA6ob6zA1to62i2F-3" value="&lt;h2 style=&quot;box-sizing: border-box; margin: 0px; order: 1; line-height: 1.4285; color: rgb(31, 35, 40); font-family: -apple-system, BlinkMacSystemFont, &amp;quot;Segoe UI&amp;quot;, &amp;quot;Noto Sans&amp;quot;, Helvetica, Arial, sans-serif, &amp;quot;Apple Color Emoji&amp;quot;, &amp;quot;Segoe UI Emoji&amp;quot;; --custom-font-size: 2rem;&quot; data-hidden=&quot;false&quot; data-component=&quot;PH_Title&quot; class=&quot;Box-sc-g0xbh4-0 gDzpXv prc-PageHeader-Title-LKOsd HeaderViewer-module__PageHeader_Title--FtJ26 prc-Heading-Heading-6CmGO&quot;&gt;&lt;bdi style=&quot;box-sizing: border-box; display: inline; word-break: break-word; margin-right: 8px;&quot; data-testid=&quot;issue-title&quot; class=&quot;Box-sc-g0xbh4-0 hjDqIa markdown-title HeaderViewer-module__VerifiedHTMLBox--EQCNM&quot;&gt;MSDFS&lt;/bdi&gt;&lt;/h2&gt;&lt;h2 style=&quot;box-sizing: border-box; margin: 0px; order: 1; line-height: 1.4285; color: rgb(31, 35, 40); font-family: -apple-system, BlinkMacSystemFont, &amp;quot;Segoe UI&amp;quot;, &amp;quot;Noto Sans&amp;quot;, Helvetica, Arial, sans-serif, &amp;quot;Apple Color Emoji&amp;quot;, &amp;quot;Segoe UI Emoji&amp;quot;; --custom-font-size: 2rem;&quot; data-hidden=&quot;false&quot; data-component=&quot;PH_Title&quot; class=&quot;Box-sc-g0xbh4-0 gDzpXv prc-PageHeader-Title-LKOsd HeaderViewer-module__PageHeader_Title--FtJ26 prc-Heading-Heading-6CmGO&quot;&gt;&lt;bdi style=&quot;box-sizing: border-box; display: inline; word-break: break-word; margin-right: 8px;&quot; data-testid=&quot;issue-title&quot; class=&quot;Box-sc-g0xbh4-0 hjDqIa markdown-title HeaderViewer-module__VerifiedHTMLBox--EQCNM&quot;&gt;Part2. 設計編&lt;/bdi&gt;&lt;/h2&gt;" style="rounded=1;whiteSpace=wrap;html=1;fontSize=10;fillColor=#d5e8d4;strokeColor=#82b366;labelBackgroundColor=none;fontStyle=1;strokeWidth=3;align=center;" parent="iCJ9TH8GzqM0QcMqVKSq-1" vertex="1">
          <mxGeometry x="320" y="380" width="220" height="60" as="geometry" />
        </mxCell>
        <mxCell id="RgOVxA6ob6zA1to62i2F-4" value="&lt;h2 class=&quot;Box-sc-g0xbh4-0 gDzpXv prc-PageHeader-Title-LKOsd HeaderViewer-module__PageHeader_Title--FtJ26 prc-Heading-Heading-6CmGO&quot; data-component=&quot;PH_Title&quot; data-hidden=&quot;false&quot; style=&quot;box-sizing: border-box; margin: 0px; order: 1; line-height: 1.4285; font-family: -apple-system, BlinkMacSystemFont, &amp;quot;Segoe UI&amp;quot;, &amp;quot;Noto Sans&amp;quot;, Helvetica, Arial, sans-serif, &amp;quot;Apple Color Emoji&amp;quot;, &amp;quot;Segoe UI Emoji&amp;quot;; --custom-font-size: 2rem;&quot;&gt;&lt;bdi class=&quot;Box-sc-g0xbh4-0 hjDqIa markdown-title HeaderViewer-module__VerifiedHTMLBox--EQCNM&quot; data-testid=&quot;issue-title&quot; style=&quot;box-sizing: border-box; display: inline; word-break: break-word; margin-right: 8px;&quot;&gt;MSDFS&lt;/bdi&gt;&lt;/h2&gt;&lt;h2 class=&quot;Box-sc-g0xbh4-0 gDzpXv prc-PageHeader-Title-LKOsd HeaderViewer-module__PageHeader_Title--FtJ26 prc-Heading-Heading-6CmGO&quot; data-component=&quot;PH_Title&quot; data-hidden=&quot;false&quot; style=&quot;box-sizing: border-box; margin: 0px; order: 1; line-height: 1.4285; font-family: -apple-system, BlinkMacSystemFont, &amp;quot;Segoe UI&amp;quot;, &amp;quot;Noto Sans&amp;quot;, Helvetica, Arial, sans-serif, &amp;quot;Apple Color Emoji&amp;quot;, &amp;quot;Segoe UI Emoji&amp;quot;; --custom-font-size: 2rem;&quot;&gt;&lt;bdi class=&quot;Box-sc-g0xbh4-0 hjDqIa markdown-title HeaderViewer-module__VerifiedHTMLBox--EQCNM&quot; data-testid=&quot;issue-title&quot; style=&quot;box-sizing: border-box; display: inline; word-break: break-word; margin-right: 8px;&quot;&gt;Part3. 計画編&lt;/bdi&gt;&lt;/h2&gt;" style="rounded=1;whiteSpace=wrap;html=1;fontSize=10;fillColor=#d5e8d4;strokeColor=#FF0000;labelBackgroundColor=none;fontStyle=1;strokeWidth=3;dashed=1;align=center;" parent="iCJ9TH8GzqM0QcMqVKSq-1" vertex="1">
          <mxGeometry x="320" y="260" width="220" height="60" as="geometry" />
        </mxCell>
        <mxCell id="RgOVxA6ob6zA1to62i2F-5" value="&lt;h2 style=&quot;box-sizing: border-box; margin: 0px; order: 1; line-height: 1.4285; font-family: -apple-system, BlinkMacSystemFont, &amp;quot;Segoe UI&amp;quot;, &amp;quot;Noto Sans&amp;quot;, Helvetica, Arial, sans-serif, &amp;quot;Apple Color Emoji&amp;quot;, &amp;quot;Segoe UI Emoji&amp;quot;; --custom-font-size: 2rem;&quot; data-hidden=&quot;false&quot; data-component=&quot;PH_Title&quot; class=&quot;Box-sc-g0xbh4-0 gDzpXv prc-PageHeader-Title-LKOsd HeaderViewer-module__PageHeader_Title--FtJ26 prc-Heading-Heading-6CmGO&quot;&gt;&lt;bdi style=&quot;box-sizing: border-box; display: inline; word-break: break-word; margin-right: 8px;&quot; data-testid=&quot;issue-title&quot; class=&quot;Box-sc-g0xbh4-0 hjDqIa markdown-title HeaderViewer-module__VerifiedHTMLBox--EQCNM&quot;&gt;MSDFS&lt;/bdi&gt;&lt;/h2&gt;&lt;h2 style=&quot;box-sizing: border-box; margin: 0px; order: 1; line-height: 1.4285; font-family: -apple-system, BlinkMacSystemFont, &amp;quot;Segoe UI&amp;quot;, &amp;quot;Noto Sans&amp;quot;, Helvetica, Arial, sans-serif, &amp;quot;Apple Color Emoji&amp;quot;, &amp;quot;Segoe UI Emoji&amp;quot;; --custom-font-size: 2rem;&quot; data-hidden=&quot;false&quot; data-component=&quot;PH_Title&quot; class=&quot;Box-sc-g0xbh4-0 gDzpXv prc-PageHeader-Title-LKOsd HeaderViewer-module__PageHeader_Title--FtJ26 prc-Heading-Heading-6CmGO&quot;&gt;&lt;bdi style=&quot;box-sizing: border-box; display: inline; word-break: break-word; margin-right: 8px;&quot; data-testid=&quot;issue-title&quot; class=&quot;Box-sc-g0xbh4-0 hjDqIa markdown-title HeaderViewer-module__VerifiedHTMLBox--EQCNM&quot;&gt;Part4. 実装編&lt;/bdi&gt;&lt;/h2&gt;" style="rounded=1;whiteSpace=wrap;html=1;fontSize=10;fillColor=#d5e8d4;strokeColor=#FF0000;labelBackgroundColor=none;fontStyle=1;strokeWidth=3;dashed=1;align=center;" parent="iCJ9TH8GzqM0QcMqVKSq-1" vertex="1">
          <mxGeometry x="320" y="140" width="220" height="60" as="geometry" />
        </mxCell>
        <mxCell id="RgOVxA6ob6zA1to62i2F-7" value="&lt;h2 data-hidden=&quot;false&quot; data-component=&quot;PH_Title&quot; class=&quot;Box-sc-g0xbh4-0 gDzpXv prc-PageHeader-Title-LKOsd HeaderViewer-module__PageHeader_Title--FtJ26 prc-Heading-Heading-6CmGO&quot; style=&quot;box-sizing: border-box; margin: 0px; order: 1; line-height: 1.4285; color: rgb(31, 35, 40); font-family: -apple-system, BlinkMacSystemFont, &amp;quot;Segoe UI&amp;quot;, &amp;quot;Noto Sans&amp;quot;, Helvetica, Arial, sans-serif, &amp;quot;Apple Color Emoji&amp;quot;, &amp;quot;Segoe UI Emoji&amp;quot;; --custom-font-size: 2rem;&quot;&gt;&lt;bdi data-testid=&quot;issue-title&quot; class=&quot;Box-sc-g0xbh4-0 hjDqIa markdown-title HeaderViewer-module__VerifiedHTMLBox--EQCNM&quot; style=&quot;box-sizing: border-box; display: inline; word-break: break-word; margin-right: 8px;&quot;&gt;MSDFS ANNEX&lt;/bdi&gt;&lt;/h2&gt;&lt;h2 data-hidden=&quot;false&quot; data-component=&quot;PH_Title&quot; class=&quot;Box-sc-g0xbh4-0 gDzpXv prc-PageHeader-Title-LKOsd HeaderViewer-module__PageHeader_Title--FtJ26 prc-Heading-Heading-6CmGO&quot; style=&quot;box-sizing: border-box; margin: 0px; order: 1; line-height: 1.4285; color: rgb(31, 35, 40); font-family: -apple-system, BlinkMacSystemFont, &amp;quot;Segoe UI&amp;quot;, &amp;quot;Noto Sans&amp;quot;, Helvetica, Arial, sans-serif, &amp;quot;Apple Color Emoji&amp;quot;, &amp;quot;Segoe UI Emoji&amp;quot;; --custom-font-size: 2rem;&quot;&gt;&lt;bdi data-testid=&quot;issue-title&quot; class=&quot;Box-sc-g0xbh4-0 hjDqIa markdown-title HeaderViewer-module__VerifiedHTMLBox--EQCNM&quot; style=&quot;box-sizing: border-box; display: inline; word-break: break-word; margin-right: 8px;&quot;&gt;GitHub / JIRA&lt;/bdi&gt;&lt;/h2&gt;" style="rounded=1;whiteSpace=wrap;html=1;fontSize=10;fillColor=#d5e8d4;strokeColor=#FF0000;labelBackgroundColor=none;fontStyle=1;strokeWidth=3;dashed=1;align=center;" parent="iCJ9TH8GzqM0QcMqVKSq-1" vertex="1">
          <mxGeometry x="600" y="320" width="220" height="60" as="geometry" />
        </mxCell>
        <mxCell id="DFg-TdxBjcgFVhkLbBi8-0" value="&lt;h2 style=&quot;box-sizing: border-box; margin: 0px; order: 1; line-height: 1.4285; color: rgb(31, 35, 40); font-family: -apple-system, BlinkMacSystemFont, &amp;quot;Segoe UI&amp;quot;, &amp;quot;Noto Sans&amp;quot;, Helvetica, Arial, sans-serif, &amp;quot;Apple Color Emoji&amp;quot;, &amp;quot;Segoe UI Emoji&amp;quot;; --custom-font-size: 2rem;&quot; class=&quot;Box-sc-g0xbh4-0 gDzpXv prc-PageHeader-Title-LKOsd HeaderViewer-module__PageHeader_Title--FtJ26 prc-Heading-Heading-6CmGO&quot; data-component=&quot;PH_Title&quot; data-hidden=&quot;false&quot;&gt;&lt;bdi style=&quot;box-sizing: border-box; display: inline; word-break: break-word; margin-right: 8px;&quot; class=&quot;Box-sc-g0xbh4-0 hjDqIa markdown-title HeaderViewer-module__VerifiedHTMLBox--EQCNM&quot; data-testid=&quot;issue-title&quot;&gt;MSDFS ANNEX&lt;/bdi&gt;&lt;/h2&gt;&lt;h2 style=&quot;box-sizing: border-box; margin: 0px; order: 1; line-height: 1.4285; color: rgb(31, 35, 40); font-family: -apple-system, BlinkMacSystemFont, &amp;quot;Segoe UI&amp;quot;, &amp;quot;Noto Sans&amp;quot;, Helvetica, Arial, sans-serif, &amp;quot;Apple Color Emoji&amp;quot;, &amp;quot;Segoe UI Emoji&amp;quot;; --custom-font-size: 2rem;&quot; class=&quot;Box-sc-g0xbh4-0 gDzpXv prc-PageHeader-Title-LKOsd HeaderViewer-module__PageHeader_Title--FtJ26 prc-Heading-Heading-6CmGO&quot; data-component=&quot;PH_Title&quot; data-hidden=&quot;false&quot;&gt;&lt;bdi style=&quot;box-sizing: border-box; display: inline; word-break: break-word; margin-right: 8px;&quot; class=&quot;Box-sc-g0xbh4-0 hjDqIa markdown-title HeaderViewer-module__VerifiedHTMLBox--EQCNM&quot; data-testid=&quot;issue-title&quot;&gt;FreeRTOS&lt;/bdi&gt;&lt;/h2&gt;" style="rounded=1;whiteSpace=wrap;html=1;fontSize=10;fillColor=#d5e8d4;strokeColor=#FF0000;labelBackgroundColor=none;fontStyle=1;strokeWidth=3;dashed=1;align=center;" parent="iCJ9TH8GzqM0QcMqVKSq-1" vertex="1">
          <mxGeometry x="40" y="200" width="220" height="60" as="geometry" />
        </mxCell>
        <mxCell id="VF2T_tbGIp2lFjzPOYqW-1" value="" style="endArrow=block;html=1;rounded=0;endFill=1;entryX=0.5;entryY=1;entryDx=0;entryDy=0;curved=0;strokeWidth=5;align=center;strokeColor=#808080;" parent="iCJ9TH8GzqM0QcMqVKSq-1" source="RgOVxA6ob6zA1to62i2F-2" target="RgOVxA6ob6zA1to62i2F-3" edge="1">
          <mxGeometry width="50" height="50" relative="1" as="geometry">
            <mxPoint x="530" y="520" as="sourcePoint" />
            <mxPoint x="580" y="470" as="targetPoint" />
          </mxGeometry>
        </mxCell>
        <mxCell id="VF2T_tbGIp2lFjzPOYqW-3" value="" style="endArrow=block;html=1;rounded=0;endFill=1;entryX=0.5;entryY=1;entryDx=0;entryDy=0;curved=0;strokeWidth=5;exitX=0.5;exitY=0;exitDx=0;exitDy=0;align=center;strokeColor=#808080;" parent="iCJ9TH8GzqM0QcMqVKSq-1" source="RgOVxA6ob6zA1to62i2F-3" target="RgOVxA6ob6zA1to62i2F-4" edge="1">
          <mxGeometry width="50" height="50" relative="1" as="geometry">
            <mxPoint x="450" y="490" as="sourcePoint" />
            <mxPoint x="450" y="430" as="targetPoint" />
          </mxGeometry>
        </mxCell>
        <mxCell id="VF2T_tbGIp2lFjzPOYqW-4" value="" style="endArrow=block;html=1;rounded=0;endFill=1;entryX=0.5;entryY=1;entryDx=0;entryDy=0;curved=0;strokeWidth=5;exitX=0.5;exitY=0;exitDx=0;exitDy=0;align=center;strokeColor=#808080;" parent="iCJ9TH8GzqM0QcMqVKSq-1" source="RgOVxA6ob6zA1to62i2F-4" target="RgOVxA6ob6zA1to62i2F-5" edge="1">
          <mxGeometry width="50" height="50" relative="1" as="geometry">
            <mxPoint x="510" y="320" as="sourcePoint" />
            <mxPoint x="510" y="260" as="targetPoint" />
          </mxGeometry>
        </mxCell>
        <mxCell id="VF2T_tbGIp2lFjzPOYqW-5" value="" style="endArrow=block;html=1;rounded=0;endFill=1;entryX=0.5;entryY=1;entryDx=0;entryDy=0;strokeWidth=5;exitX=1;exitY=0.5;exitDx=0;exitDy=0;edgeStyle=orthogonalEdgeStyle;align=center;strokeColor=#808080;" parent="iCJ9TH8GzqM0QcMqVKSq-1" source="RgOVxA6ob6zA1to62i2F-3" target="RgOVxA6ob6zA1to62i2F-7" edge="1">
          <mxGeometry width="50" height="50" relative="1" as="geometry">
            <mxPoint x="580" y="400" as="sourcePoint" />
            <mxPoint x="580" y="340" as="targetPoint" />
          </mxGeometry>
        </mxCell>
        <mxCell id="VF2T_tbGIp2lFjzPOYqW-6" value="" style="endArrow=block;html=1;rounded=0;endFill=1;entryX=1;entryY=0.5;entryDx=0;entryDy=0;strokeWidth=5;exitX=0.5;exitY=0;exitDx=0;exitDy=0;edgeStyle=orthogonalEdgeStyle;align=center;strokeColor=#808080;" parent="iCJ9TH8GzqM0QcMqVKSq-1" source="RgOVxA6ob6zA1to62i2F-7" target="RgOVxA6ob6zA1to62i2F-4" edge="1">
          <mxGeometry width="50" height="50" relative="1" as="geometry">
            <mxPoint x="760" y="410" as="sourcePoint" />
            <mxPoint x="930" y="380" as="targetPoint" />
          </mxGeometry>
        </mxCell>
        <mxCell id="VF2T_tbGIp2lFjzPOYqW-7" value="" style="endArrow=block;html=1;rounded=0;endFill=1;entryX=0.5;entryY=1;entryDx=0;entryDy=0;strokeWidth=5;edgeStyle=orthogonalEdgeStyle;exitX=0;exitY=0.5;exitDx=0;exitDy=0;align=center;strokeColor=#808080;" parent="iCJ9TH8GzqM0QcMqVKSq-1" source="RgOVxA6ob6zA1to62i2F-4" target="DFg-TdxBjcgFVhkLbBi8-0" edge="1">
          <mxGeometry width="50" height="50" relative="1" as="geometry">
            <mxPoint x="630" y="270" as="sourcePoint" />
            <mxPoint x="640" y="290" as="targetPoint" />
          </mxGeometry>
        </mxCell>
        <mxCell id="VF2T_tbGIp2lFjzPOYqW-8" value="" style="endArrow=block;html=1;rounded=0;endFill=1;entryX=0;entryY=0.5;entryDx=0;entryDy=0;strokeWidth=5;edgeStyle=orthogonalEdgeStyle;exitX=0.5;exitY=0;exitDx=0;exitDy=0;align=center;strokeColor=#808080;" parent="iCJ9TH8GzqM0QcMqVKSq-1" source="DFg-TdxBjcgFVhkLbBi8-0" target="RgOVxA6ob6zA1to62i2F-5" edge="1">
          <mxGeometry width="50" height="50" relative="1" as="geometry">
            <mxPoint x="410" y="260" as="sourcePoint" />
            <mxPoint x="240" y="230" as="targetPoint" />
          </mxGeometry>
        </mxCell>
        <mxCell id="VF2T_tbGIp2lFjzPOYqW-9" value="Text" style="text;html=1;align=center;verticalAlign=middle;whiteSpace=wrap;rounded=0;" parent="iCJ9TH8GzqM0QcMqVKSq-1" vertex="1">
          <mxGeometry x="620" y="380" width="60" height="30" as="geometry" />
        </mxCell>
        <mxCell id="VF2T_tbGIp2lFjzPOYqW-10" value="Text" style="text;html=1;align=center;verticalAlign=middle;whiteSpace=wrap;rounded=0;" parent="iCJ9TH8GzqM0QcMqVKSq-1" vertex="1">
          <mxGeometry x="620" y="380" width="60" height="30" as="geometry" />
        </mxCell>
        <mxCell id="VF2T_tbGIp2lFjzPOYqW-11" value="Text" style="text;html=1;align=center;verticalAlign=middle;whiteSpace=wrap;rounded=0;" parent="iCJ9TH8GzqM0QcMqVKSq-1" vertex="1">
          <mxGeometry x="620" y="380" width="60" height="30" as="geometry" />
        </mxCell>
        <mxCell id="VF2T_tbGIp2lFjzPOYqW-12" value="構成" style="text;html=1;align=center;verticalAlign=middle;whiteSpace=wrap;rounded=0;fontSize=30;fontStyle=1" parent="iCJ9TH8GzqM0QcMqVKSq-1" vertex="1">
          <mxGeometry x="350" y="60" width="160" height="30" as="geometry" />
        </mxCell>
      </root>
    </mxGraphModel>
  </diagram>
  <diagram name="Overview_en" id="UcUtSyAjgDJ1MJbaiQzX">
    <mxGraphModel dx="1426" dy="841" grid="1" gridSize="10" guides="1" tooltips="1" connect="1" arrows="1" fold="1" page="1" pageScale="1" pageWidth="1100" pageHeight="850" background="none" math="0" shadow="0">
      <root>
        <mxCell id="-diAO7A5YRqqKJvwEc71-0" />
        <mxCell id="-diAO7A5YRqqKJvwEc71-1" parent="-diAO7A5YRqqKJvwEc71-0" />
        <mxCell id="-diAO7A5YRqqKJvwEc71-2" value="&lt;h2 style=&quot;box-sizing: border-box; margin: 0px; order: 1; line-height: 1.4285; color: rgb(31, 35, 40); font-family: -apple-system, BlinkMacSystemFont, &amp;quot;Segoe UI&amp;quot;, &amp;quot;Noto Sans&amp;quot;, Helvetica, Arial, sans-serif, &amp;quot;Apple Color Emoji&amp;quot;, &amp;quot;Segoe UI Emoji&amp;quot;; --custom-font-size: 2rem;&quot; data-hidden=&quot;false&quot; data-component=&quot;PH_Title&quot; class=&quot;Box-sc-g0xbh4-0 gDzpXv prc-PageHeader-Title-LKOsd HeaderViewer-module__PageHeader_Title--FtJ26 prc-Heading-Heading-6CmGO&quot;&gt;&lt;bdi style=&quot;box-sizing: border-box; display: inline; word-break: break-word; margin-right: 8px;&quot; data-testid=&quot;issue-title&quot; class=&quot;Box-sc-g0xbh4-0 hjDqIa markdown-title HeaderViewer-module__VerifiedHTMLBox--EQCNM&quot;&gt;MSDFS&lt;/bdi&gt;&lt;/h2&gt;&lt;h2 style=&quot;box-sizing: border-box; margin: 0px; order: 1; line-height: 1.4285; color: rgb(31, 35, 40); font-family: -apple-system, BlinkMacSystemFont, &amp;quot;Segoe UI&amp;quot;, &amp;quot;Noto Sans&amp;quot;, Helvetica, Arial, sans-serif, &amp;quot;Apple Color Emoji&amp;quot;, &amp;quot;Segoe UI Emoji&amp;quot;; --custom-font-size: 2rem;&quot; data-hidden=&quot;false&quot; data-component=&quot;PH_Title&quot; class=&quot;Box-sc-g0xbh4-0 gDzpXv prc-PageHeader-Title-LKOsd HeaderViewer-module__PageHeader_Title--FtJ26 prc-Heading-Heading-6CmGO&quot;&gt;&lt;bdi style=&quot;box-sizing: border-box; display: inline; word-break: break-word; margin-right: 8px;&quot; data-testid=&quot;issue-title&quot; class=&quot;Box-sc-g0xbh4-0 hjDqIa markdown-title HeaderViewer-module__VerifiedHTMLBox--EQCNM&quot;&gt;Part1. Basic&lt;/bdi&gt;&lt;/h2&gt;" style="rounded=1;whiteSpace=wrap;html=1;fontSize=10;fillColor=#d5e8d4;strokeColor=#82b366;labelBackgroundColor=none;fontStyle=1;strokeWidth=3;align=center;" vertex="1" parent="-diAO7A5YRqqKJvwEc71-1">
          <mxGeometry x="320" y="500" width="220" height="60" as="geometry" />
        </mxCell>
        <mxCell id="-diAO7A5YRqqKJvwEc71-3" value="&lt;h2 style=&quot;box-sizing: border-box; margin: 0px; order: 1; line-height: 1.4285; color: rgb(31, 35, 40); font-family: -apple-system, BlinkMacSystemFont, &amp;quot;Segoe UI&amp;quot;, &amp;quot;Noto Sans&amp;quot;, Helvetica, Arial, sans-serif, &amp;quot;Apple Color Emoji&amp;quot;, &amp;quot;Segoe UI Emoji&amp;quot;; --custom-font-size: 2rem;&quot; data-hidden=&quot;false&quot; data-component=&quot;PH_Title&quot; class=&quot;Box-sc-g0xbh4-0 gDzpXv prc-PageHeader-Title-LKOsd HeaderViewer-module__PageHeader_Title--FtJ26 prc-Heading-Heading-6CmGO&quot;&gt;&lt;bdi style=&quot;box-sizing: border-box; display: inline; word-break: break-word; margin-right: 8px;&quot; data-testid=&quot;issue-title&quot; class=&quot;Box-sc-g0xbh4-0 hjDqIa markdown-title HeaderViewer-module__VerifiedHTMLBox--EQCNM&quot;&gt;MSDFS&lt;/bdi&gt;&lt;/h2&gt;&lt;h2 style=&quot;box-sizing: border-box; margin: 0px; order: 1; line-height: 1.4285; color: rgb(31, 35, 40); font-family: -apple-system, BlinkMacSystemFont, &amp;quot;Segoe UI&amp;quot;, &amp;quot;Noto Sans&amp;quot;, Helvetica, Arial, sans-serif, &amp;quot;Apple Color Emoji&amp;quot;, &amp;quot;Segoe UI Emoji&amp;quot;; --custom-font-size: 2rem;&quot; data-hidden=&quot;false&quot; data-component=&quot;PH_Title&quot; class=&quot;Box-sc-g0xbh4-0 gDzpXv prc-PageHeader-Title-LKOsd HeaderViewer-module__PageHeader_Title--FtJ26 prc-Heading-Heading-6CmGO&quot;&gt;&lt;bdi style=&quot;box-sizing: border-box; display: inline; word-break: break-word; margin-right: 8px;&quot; data-testid=&quot;issue-title&quot; class=&quot;Box-sc-g0xbh4-0 hjDqIa markdown-title HeaderViewer-module__VerifiedHTMLBox--EQCNM&quot;&gt;Part2. Design&lt;/bdi&gt;&lt;/h2&gt;" style="rounded=1;whiteSpace=wrap;html=1;fontSize=10;fillColor=#d5e8d4;strokeColor=#82b366;labelBackgroundColor=none;fontStyle=1;strokeWidth=3;align=center;" vertex="1" parent="-diAO7A5YRqqKJvwEc71-1">
          <mxGeometry x="320" y="380" width="220" height="60" as="geometry" />
        </mxCell>
        <mxCell id="-diAO7A5YRqqKJvwEc71-4" value="&lt;h2 class=&quot;Box-sc-g0xbh4-0 gDzpXv prc-PageHeader-Title-LKOsd HeaderViewer-module__PageHeader_Title--FtJ26 prc-Heading-Heading-6CmGO&quot; data-component=&quot;PH_Title&quot; data-hidden=&quot;false&quot; style=&quot;box-sizing: border-box; margin: 0px; order: 1; line-height: 1.4285; font-family: -apple-system, BlinkMacSystemFont, &amp;quot;Segoe UI&amp;quot;, &amp;quot;Noto Sans&amp;quot;, Helvetica, Arial, sans-serif, &amp;quot;Apple Color Emoji&amp;quot;, &amp;quot;Segoe UI Emoji&amp;quot;; --custom-font-size: 2rem;&quot;&gt;&lt;bdi class=&quot;Box-sc-g0xbh4-0 hjDqIa markdown-title HeaderViewer-module__VerifiedHTMLBox--EQCNM&quot; data-testid=&quot;issue-title&quot; style=&quot;box-sizing: border-box; display: inline; word-break: break-word; margin-right: 8px;&quot;&gt;MSDFS&lt;/bdi&gt;&lt;/h2&gt;&lt;h2 class=&quot;Box-sc-g0xbh4-0 gDzpXv prc-PageHeader-Title-LKOsd HeaderViewer-module__PageHeader_Title--FtJ26 prc-Heading-Heading-6CmGO&quot; data-component=&quot;PH_Title&quot; data-hidden=&quot;false&quot; style=&quot;box-sizing: border-box; margin: 0px; order: 1; line-height: 1.4285; font-family: -apple-system, BlinkMacSystemFont, &amp;quot;Segoe UI&amp;quot;, &amp;quot;Noto Sans&amp;quot;, Helvetica, Arial, sans-serif, &amp;quot;Apple Color Emoji&amp;quot;, &amp;quot;Segoe UI Emoji&amp;quot;; --custom-font-size: 2rem;&quot;&gt;&lt;bdi class=&quot;Box-sc-g0xbh4-0 hjDqIa markdown-title HeaderViewer-module__VerifiedHTMLBox--EQCNM&quot; data-testid=&quot;issue-title&quot; style=&quot;box-sizing: border-box; display: inline; word-break: break-word; margin-right: 8px;&quot;&gt;Part3. Planning&lt;/bdi&gt;&lt;/h2&gt;" style="rounded=1;whiteSpace=wrap;html=1;fontSize=10;fillColor=#d5e8d4;strokeColor=#FF0000;labelBackgroundColor=none;fontStyle=1;strokeWidth=3;dashed=1;align=center;" vertex="1" parent="-diAO7A5YRqqKJvwEc71-1">
          <mxGeometry x="320" y="260" width="220" height="60" as="geometry" />
        </mxCell>
        <mxCell id="-diAO7A5YRqqKJvwEc71-5" value="&lt;h2 style=&quot;box-sizing: border-box; margin: 0px; order: 1; line-height: 1.4285; font-family: -apple-system, BlinkMacSystemFont, &amp;quot;Segoe UI&amp;quot;, &amp;quot;Noto Sans&amp;quot;, Helvetica, Arial, sans-serif, &amp;quot;Apple Color Emoji&amp;quot;, &amp;quot;Segoe UI Emoji&amp;quot;; --custom-font-size: 2rem;&quot; data-hidden=&quot;false&quot; data-component=&quot;PH_Title&quot; class=&quot;Box-sc-g0xbh4-0 gDzpXv prc-PageHeader-Title-LKOsd HeaderViewer-module__PageHeader_Title--FtJ26 prc-Heading-Heading-6CmGO&quot;&gt;&lt;bdi style=&quot;box-sizing: border-box; display: inline; word-break: break-word; margin-right: 8px;&quot; data-testid=&quot;issue-title&quot; class=&quot;Box-sc-g0xbh4-0 hjDqIa markdown-title HeaderViewer-module__VerifiedHTMLBox--EQCNM&quot;&gt;MSDFS&lt;/bdi&gt;&lt;/h2&gt;&lt;h2 style=&quot;box-sizing: border-box; margin: 0px; order: 1; line-height: 1.4285; font-family: -apple-system, BlinkMacSystemFont, &amp;quot;Segoe UI&amp;quot;, &amp;quot;Noto Sans&amp;quot;, Helvetica, Arial, sans-serif, &amp;quot;Apple Color Emoji&amp;quot;, &amp;quot;Segoe UI Emoji&amp;quot;; --custom-font-size: 2rem;&quot; data-hidden=&quot;false&quot; data-component=&quot;PH_Title&quot; class=&quot;Box-sc-g0xbh4-0 gDzpXv prc-PageHeader-Title-LKOsd HeaderViewer-module__PageHeader_Title--FtJ26 prc-Heading-Heading-6CmGO&quot;&gt;&lt;bdi style=&quot;box-sizing: border-box; display: inline; word-break: break-word; margin-right: 8px;&quot; data-testid=&quot;issue-title&quot; class=&quot;Box-sc-g0xbh4-0 hjDqIa markdown-title HeaderViewer-module__VerifiedHTMLBox--EQCNM&quot;&gt;Part4. Implementation&lt;/bdi&gt;&lt;/h2&gt;" style="rounded=1;whiteSpace=wrap;html=1;fontSize=10;fillColor=#d5e8d4;strokeColor=#FF0000;labelBackgroundColor=none;fontStyle=1;strokeWidth=3;dashed=1;align=center;" vertex="1" parent="-diAO7A5YRqqKJvwEc71-1">
          <mxGeometry x="320" y="140" width="220" height="60" as="geometry" />
        </mxCell>
        <mxCell id="-diAO7A5YRqqKJvwEc71-6" value="&lt;h2 data-hidden=&quot;false&quot; data-component=&quot;PH_Title&quot; class=&quot;Box-sc-g0xbh4-0 gDzpXv prc-PageHeader-Title-LKOsd HeaderViewer-module__PageHeader_Title--FtJ26 prc-Heading-Heading-6CmGO&quot; style=&quot;box-sizing: border-box; margin: 0px; order: 1; line-height: 1.4285; color: rgb(31, 35, 40); font-family: -apple-system, BlinkMacSystemFont, &amp;quot;Segoe UI&amp;quot;, &amp;quot;Noto Sans&amp;quot;, Helvetica, Arial, sans-serif, &amp;quot;Apple Color Emoji&amp;quot;, &amp;quot;Segoe UI Emoji&amp;quot;; --custom-font-size: 2rem;&quot;&gt;&lt;bdi data-testid=&quot;issue-title&quot; class=&quot;Box-sc-g0xbh4-0 hjDqIa markdown-title HeaderViewer-module__VerifiedHTMLBox--EQCNM&quot; style=&quot;box-sizing: border-box; display: inline; word-break: break-word; margin-right: 8px;&quot;&gt;MSDFS ANNEX&lt;/bdi&gt;&lt;/h2&gt;&lt;h2 data-hidden=&quot;false&quot; data-component=&quot;PH_Title&quot; class=&quot;Box-sc-g0xbh4-0 gDzpXv prc-PageHeader-Title-LKOsd HeaderViewer-module__PageHeader_Title--FtJ26 prc-Heading-Heading-6CmGO&quot; style=&quot;box-sizing: border-box; margin: 0px; order: 1; line-height: 1.4285; color: rgb(31, 35, 40); font-family: -apple-system, BlinkMacSystemFont, &amp;quot;Segoe UI&amp;quot;, &amp;quot;Noto Sans&amp;quot;, Helvetica, Arial, sans-serif, &amp;quot;Apple Color Emoji&amp;quot;, &amp;quot;Segoe UI Emoji&amp;quot;; --custom-font-size: 2rem;&quot;&gt;&lt;bdi data-testid=&quot;issue-title&quot; class=&quot;Box-sc-g0xbh4-0 hjDqIa markdown-title HeaderViewer-module__VerifiedHTMLBox--EQCNM&quot; style=&quot;box-sizing: border-box; display: inline; word-break: break-word; margin-right: 8px;&quot;&gt;GitHub / JIRA&lt;/bdi&gt;&lt;/h2&gt;" style="rounded=1;whiteSpace=wrap;html=1;fontSize=10;fillColor=#d5e8d4;strokeColor=#FF0000;labelBackgroundColor=none;fontStyle=1;strokeWidth=3;dashed=1;align=center;" vertex="1" parent="-diAO7A5YRqqKJvwEc71-1">
          <mxGeometry x="600" y="320" width="220" height="60" as="geometry" />
        </mxCell>
        <mxCell id="-diAO7A5YRqqKJvwEc71-7" value="&lt;h2 style=&quot;box-sizing: border-box; margin: 0px; order: 1; line-height: 1.4285; color: rgb(31, 35, 40); font-family: -apple-system, BlinkMacSystemFont, &amp;quot;Segoe UI&amp;quot;, &amp;quot;Noto Sans&amp;quot;, Helvetica, Arial, sans-serif, &amp;quot;Apple Color Emoji&amp;quot;, &amp;quot;Segoe UI Emoji&amp;quot;; --custom-font-size: 2rem;&quot; class=&quot;Box-sc-g0xbh4-0 gDzpXv prc-PageHeader-Title-LKOsd HeaderViewer-module__PageHeader_Title--FtJ26 prc-Heading-Heading-6CmGO&quot; data-component=&quot;PH_Title&quot; data-hidden=&quot;false&quot;&gt;&lt;bdi style=&quot;box-sizing: border-box; display: inline; word-break: break-word; margin-right: 8px;&quot; class=&quot;Box-sc-g0xbh4-0 hjDqIa markdown-title HeaderViewer-module__VerifiedHTMLBox--EQCNM&quot; data-testid=&quot;issue-title&quot;&gt;MSDFS ANNEX&lt;/bdi&gt;&lt;/h2&gt;&lt;h2 style=&quot;box-sizing: border-box; margin: 0px; order: 1; line-height: 1.4285; color: rgb(31, 35, 40); font-family: -apple-system, BlinkMacSystemFont, &amp;quot;Segoe UI&amp;quot;, &amp;quot;Noto Sans&amp;quot;, Helvetica, Arial, sans-serif, &amp;quot;Apple Color Emoji&amp;quot;, &amp;quot;Segoe UI Emoji&amp;quot;; --custom-font-size: 2rem;&quot; class=&quot;Box-sc-g0xbh4-0 gDzpXv prc-PageHeader-Title-LKOsd HeaderViewer-module__PageHeader_Title--FtJ26 prc-Heading-Heading-6CmGO&quot; data-component=&quot;PH_Title&quot; data-hidden=&quot;false&quot;&gt;&lt;bdi style=&quot;box-sizing: border-box; display: inline; word-break: break-word; margin-right: 8px;&quot; class=&quot;Box-sc-g0xbh4-0 hjDqIa markdown-title HeaderViewer-module__VerifiedHTMLBox--EQCNM&quot; data-testid=&quot;issue-title&quot;&gt;FreeRTOS&lt;/bdi&gt;&lt;/h2&gt;" style="rounded=1;whiteSpace=wrap;html=1;fontSize=10;fillColor=#d5e8d4;strokeColor=#FF0000;labelBackgroundColor=none;fontStyle=1;strokeWidth=3;dashed=1;align=center;" vertex="1" parent="-diAO7A5YRqqKJvwEc71-1">
          <mxGeometry x="40" y="200" width="220" height="60" as="geometry" />
        </mxCell>
        <mxCell id="-diAO7A5YRqqKJvwEc71-8" value="" style="endArrow=block;html=1;rounded=0;endFill=1;entryX=0.5;entryY=1;entryDx=0;entryDy=0;curved=0;strokeWidth=5;align=center;strokeColor=#808080;" edge="1" parent="-diAO7A5YRqqKJvwEc71-1" source="-diAO7A5YRqqKJvwEc71-2" target="-diAO7A5YRqqKJvwEc71-3">
          <mxGeometry width="50" height="50" relative="1" as="geometry">
            <mxPoint x="530" y="520" as="sourcePoint" />
            <mxPoint x="580" y="470" as="targetPoint" />
          </mxGeometry>
        </mxCell>
        <mxCell id="-diAO7A5YRqqKJvwEc71-9" value="" style="endArrow=block;html=1;rounded=0;endFill=1;entryX=0.5;entryY=1;entryDx=0;entryDy=0;curved=0;strokeWidth=5;exitX=0.5;exitY=0;exitDx=0;exitDy=0;align=center;strokeColor=#808080;" edge="1" parent="-diAO7A5YRqqKJvwEc71-1" source="-diAO7A5YRqqKJvwEc71-3" target="-diAO7A5YRqqKJvwEc71-4">
          <mxGeometry width="50" height="50" relative="1" as="geometry">
            <mxPoint x="450" y="490" as="sourcePoint" />
            <mxPoint x="450" y="430" as="targetPoint" />
          </mxGeometry>
        </mxCell>
        <mxCell id="-diAO7A5YRqqKJvwEc71-10" value="" style="endArrow=block;html=1;rounded=0;endFill=1;entryX=0.5;entryY=1;entryDx=0;entryDy=0;curved=0;strokeWidth=5;exitX=0.5;exitY=0;exitDx=0;exitDy=0;align=center;strokeColor=#808080;" edge="1" parent="-diAO7A5YRqqKJvwEc71-1" source="-diAO7A5YRqqKJvwEc71-4" target="-diAO7A5YRqqKJvwEc71-5">
          <mxGeometry width="50" height="50" relative="1" as="geometry">
            <mxPoint x="510" y="320" as="sourcePoint" />
            <mxPoint x="510" y="260" as="targetPoint" />
          </mxGeometry>
        </mxCell>
        <mxCell id="-diAO7A5YRqqKJvwEc71-11" value="" style="endArrow=block;html=1;rounded=0;endFill=1;entryX=0.5;entryY=1;entryDx=0;entryDy=0;strokeWidth=5;exitX=1;exitY=0.5;exitDx=0;exitDy=0;edgeStyle=orthogonalEdgeStyle;align=center;strokeColor=#808080;" edge="1" parent="-diAO7A5YRqqKJvwEc71-1" source="-diAO7A5YRqqKJvwEc71-3" target="-diAO7A5YRqqKJvwEc71-6">
          <mxGeometry width="50" height="50" relative="1" as="geometry">
            <mxPoint x="580" y="400" as="sourcePoint" />
            <mxPoint x="580" y="340" as="targetPoint" />
          </mxGeometry>
        </mxCell>
        <mxCell id="-diAO7A5YRqqKJvwEc71-12" value="" style="endArrow=block;html=1;rounded=0;endFill=1;entryX=1;entryY=0.5;entryDx=0;entryDy=0;strokeWidth=5;exitX=0.5;exitY=0;exitDx=0;exitDy=0;edgeStyle=orthogonalEdgeStyle;align=center;strokeColor=#808080;" edge="1" parent="-diAO7A5YRqqKJvwEc71-1" source="-diAO7A5YRqqKJvwEc71-6" target="-diAO7A5YRqqKJvwEc71-4">
          <mxGeometry width="50" height="50" relative="1" as="geometry">
            <mxPoint x="760" y="410" as="sourcePoint" />
            <mxPoint x="930" y="380" as="targetPoint" />
          </mxGeometry>
        </mxCell>
        <mxCell id="-diAO7A5YRqqKJvwEc71-13" value="" style="endArrow=block;html=1;rounded=0;endFill=1;entryX=0.5;entryY=1;entryDx=0;entryDy=0;strokeWidth=5;edgeStyle=orthogonalEdgeStyle;exitX=0;exitY=0.5;exitDx=0;exitDy=0;align=center;strokeColor=#808080;" edge="1" parent="-diAO7A5YRqqKJvwEc71-1" source="-diAO7A5YRqqKJvwEc71-4" target="-diAO7A5YRqqKJvwEc71-7">
          <mxGeometry width="50" height="50" relative="1" as="geometry">
            <mxPoint x="630" y="270" as="sourcePoint" />
            <mxPoint x="640" y="290" as="targetPoint" />
          </mxGeometry>
        </mxCell>
        <mxCell id="-diAO7A5YRqqKJvwEc71-14" value="" style="endArrow=block;html=1;rounded=0;endFill=1;entryX=0;entryY=0.5;entryDx=0;entryDy=0;strokeWidth=5;edgeStyle=orthogonalEdgeStyle;exitX=0.5;exitY=0;exitDx=0;exitDy=0;align=center;strokeColor=#808080;" edge="1" parent="-diAO7A5YRqqKJvwEc71-1" source="-diAO7A5YRqqKJvwEc71-7" target="-diAO7A5YRqqKJvwEc71-5">
          <mxGeometry width="50" height="50" relative="1" as="geometry">
            <mxPoint x="410" y="260" as="sourcePoint" />
            <mxPoint x="240" y="230" as="targetPoint" />
          </mxGeometry>
        </mxCell>
        <mxCell id="-diAO7A5YRqqKJvwEc71-15" value="Text" style="text;html=1;align=center;verticalAlign=middle;whiteSpace=wrap;rounded=0;" vertex="1" parent="-diAO7A5YRqqKJvwEc71-1">
          <mxGeometry x="620" y="380" width="60" height="30" as="geometry" />
        </mxCell>
        <mxCell id="-diAO7A5YRqqKJvwEc71-16" value="Text" style="text;html=1;align=center;verticalAlign=middle;whiteSpace=wrap;rounded=0;" vertex="1" parent="-diAO7A5YRqqKJvwEc71-1">
          <mxGeometry x="620" y="380" width="60" height="30" as="geometry" />
        </mxCell>
        <mxCell id="-diAO7A5YRqqKJvwEc71-17" value="Text" style="text;html=1;align=center;verticalAlign=middle;whiteSpace=wrap;rounded=0;" vertex="1" parent="-diAO7A5YRqqKJvwEc71-1">
          <mxGeometry x="620" y="380" width="60" height="30" as="geometry" />
        </mxCell>
        <mxCell id="-diAO7A5YRqqKJvwEc71-18" value="Organization" style="text;html=1;align=center;verticalAlign=middle;whiteSpace=wrap;rounded=0;fontSize=30;fontStyle=1" vertex="1" parent="-diAO7A5YRqqKJvwEc71-1">
          <mxGeometry x="340" y="60" width="180" height="30" as="geometry" />
        </mxCell>
      </root>
    </mxGraphModel>
  </diagram>
  <diagram name="HCD" id="13e1069c-82ec-6db2-03f1-153e76fe0fe0">
    <mxGraphModel dx="1426" dy="841" grid="1" gridSize="10" guides="1" tooltips="1" connect="1" arrows="1" fold="1" page="1" pageScale="1" pageWidth="1100" pageHeight="850" background="none" math="0" shadow="0">
      <root>
        <mxCell id="0" />
        <mxCell id="1" parent="0" />
        <mxCell id="c04L4ZITfjTPw2QW9u5T-43" value="&lt;h1 style=&quot;margin-top: 0px;&quot;&gt;MCU Hardware Concept Model&lt;/h1&gt;" style="text;html=1;whiteSpace=wrap;overflow=hidden;rounded=0;" parent="1" vertex="1">
          <mxGeometry x="40" y="20" width="380" height="50" as="geometry" />
        </mxCell>
        <mxCell id="vPWLyh52lt6zzSOhZWYh-5" value="" style="edgeStyle=orthogonalEdgeStyle;rounded=0;orthogonalLoop=1;jettySize=auto;html=1;startArrow=block;startFill=1;endArrow=block;endFill=1;" parent="1" source="vPWLyh52lt6zzSOhZWYh-1" target="vPWLyh52lt6zzSOhZWYh-3" edge="1">
          <mxGeometry relative="1" as="geometry" />
        </mxCell>
        <mxCell id="vPWLyh52lt6zzSOhZWYh-1" value="MCU" style="shape=folder;fontStyle=1;tabWidth=110;tabHeight=30;tabPosition=left;html=1;boundedLbl=1;labelInHeader=1;container=1;collapsible=0;recursiveResize=0;whiteSpace=wrap;" parent="1" vertex="1">
          <mxGeometry x="40" y="80" width="160" height="100" as="geometry" />
        </mxCell>
        <mxCell id="vPWLyh52lt6zzSOhZWYh-2" value="ARM CoreM0+" style="html=1;whiteSpace=wrap;" parent="vPWLyh52lt6zzSOhZWYh-1" vertex="1">
          <mxGeometry width="110" height="30" relative="1" as="geometry">
            <mxPoint x="24" y="50" as="offset" />
          </mxGeometry>
        </mxCell>
        <mxCell id="vPWLyh52lt6zzSOhZWYh-12" value="" style="edgeStyle=orthogonalEdgeStyle;rounded=0;orthogonalLoop=1;jettySize=auto;html=1;startArrow=block;startFill=1;endArrow=block;endFill=1;" parent="1" source="vPWLyh52lt6zzSOhZWYh-3" target="vPWLyh52lt6zzSOhZWYh-8" edge="1">
          <mxGeometry relative="1" as="geometry" />
        </mxCell>
        <mxCell id="vPWLyh52lt6zzSOhZWYh-3" value="Memory" style="shape=folder;fontStyle=1;tabWidth=110;tabHeight=30;tabPosition=left;html=1;boundedLbl=1;labelInHeader=1;container=1;collapsible=0;recursiveResize=0;whiteSpace=wrap;" parent="1" vertex="1">
          <mxGeometry x="320" y="80" width="160" height="180" as="geometry" />
        </mxCell>
        <mxCell id="vPWLyh52lt6zzSOhZWYh-4" value="Register" style="html=1;whiteSpace=wrap;" parent="vPWLyh52lt6zzSOhZWYh-3" vertex="1">
          <mxGeometry width="110" height="30" relative="1" as="geometry">
            <mxPoint x="24" y="50" as="offset" />
          </mxGeometry>
        </mxCell>
        <mxCell id="vPWLyh52lt6zzSOhZWYh-6" value="SRAM" style="html=1;whiteSpace=wrap;" parent="vPWLyh52lt6zzSOhZWYh-3" vertex="1">
          <mxGeometry width="110" height="30" relative="1" as="geometry">
            <mxPoint x="24" y="90" as="offset" />
          </mxGeometry>
        </mxCell>
        <mxCell id="vPWLyh52lt6zzSOhZWYh-7" value="FLASH" style="html=1;whiteSpace=wrap;" parent="vPWLyh52lt6zzSOhZWYh-3" vertex="1">
          <mxGeometry width="110" height="30" relative="1" as="geometry">
            <mxPoint x="24" y="130" as="offset" />
          </mxGeometry>
        </mxCell>
        <mxCell id="vPWLyh52lt6zzSOhZWYh-8" value="Peripherals" style="shape=folder;fontStyle=1;tabWidth=110;tabHeight=30;tabPosition=left;html=1;boundedLbl=1;labelInHeader=1;container=1;collapsible=0;recursiveResize=0;whiteSpace=wrap;" parent="1" vertex="1">
          <mxGeometry x="600" y="80" width="160" height="180" as="geometry" />
        </mxCell>
        <mxCell id="vPWLyh52lt6zzSOhZWYh-9" value="GPIO" style="html=1;whiteSpace=wrap;" parent="vPWLyh52lt6zzSOhZWYh-8" vertex="1">
          <mxGeometry width="110" height="30" relative="1" as="geometry">
            <mxPoint x="24" y="50" as="offset" />
          </mxGeometry>
        </mxCell>
        <mxCell id="vPWLyh52lt6zzSOhZWYh-10" value="TIM" style="html=1;whiteSpace=wrap;" parent="vPWLyh52lt6zzSOhZWYh-8" vertex="1">
          <mxGeometry width="110" height="30" relative="1" as="geometry">
            <mxPoint x="24" y="90" as="offset" />
          </mxGeometry>
        </mxCell>
        <mxCell id="vPWLyh52lt6zzSOhZWYh-11" value="UART" style="html=1;whiteSpace=wrap;" parent="vPWLyh52lt6zzSOhZWYh-8" vertex="1">
          <mxGeometry width="110" height="30" relative="1" as="geometry">
            <mxPoint x="24" y="130" as="offset" />
          </mxGeometry>
        </mxCell>
        <mxCell id="vPWLyh52lt6zzSOhZWYh-13" value="" style="edgeStyle=orthogonalEdgeStyle;rounded=0;orthogonalLoop=1;jettySize=auto;html=1;startArrow=block;startFill=1;endArrow=block;endFill=1;" parent="1" edge="1">
          <mxGeometry relative="1" as="geometry">
            <mxPoint x="40" y="280" as="sourcePoint" />
            <mxPoint x="300" y="280" as="targetPoint" />
          </mxGeometry>
        </mxCell>
        <mxCell id="vPWLyh52lt6zzSOhZWYh-14" value="BUS, e.g., IOPORT,AHB, APB, System, DMA." style="text;html=1;align=center;verticalAlign=middle;whiteSpace=wrap;rounded=0;" parent="1" vertex="1">
          <mxGeometry x="40" y="290" width="270" height="30" as="geometry" />
        </mxCell>
      </root>
    </mxGraphModel>
  </diagram>
  <diagram name="SCD" id="J-Bd_j0rxy2oPNWF3FvJ">
    <mxGraphModel dx="1434" dy="844" grid="1" gridSize="10" guides="1" tooltips="1" connect="1" arrows="1" fold="1" page="1" pageScale="1" pageWidth="1100" pageHeight="850" background="none" math="0" shadow="0">
      <root>
        <mxCell id="t-YoSb7FIt-wNIy6U0vz-0" />
        <mxCell id="t-YoSb7FIt-wNIy6U0vz-1" parent="t-YoSb7FIt-wNIy6U0vz-0" />
        <mxCell id="t-YoSb7FIt-wNIy6U0vz-2" value="Memory" style="shape=umlLifeline;perimeter=lifelinePerimeter;whiteSpace=wrap;html=1;container=1;collapsible=0;recursiveResize=0;outlineConnect=0;rounded=1;shadow=0;comic=0;labelBackgroundColor=none;strokeWidth=1;fontFamily=Verdana;fontSize=12;align=center;" vertex="1" parent="t-YoSb7FIt-wNIy6U0vz-1">
          <mxGeometry x="360" y="122" width="100" height="219" as="geometry" />
        </mxCell>
        <mxCell id="t-YoSb7FIt-wNIy6U0vz-20" value="" style="html=1;points=[];perimeter=orthogonalPerimeter;rounded=0;shadow=0;comic=0;labelBackgroundColor=none;strokeWidth=1;fontFamily=Verdana;fontSize=12;align=center;" vertex="1" parent="t-YoSb7FIt-wNIy6U0vz-2">
          <mxGeometry x="45" y="81" width="10" height="21" as="geometry" />
        </mxCell>
        <mxCell id="t-YoSb7FIt-wNIy6U0vz-3" value="GPIOF" style="shape=umlLifeline;perimeter=lifelinePerimeter;whiteSpace=wrap;html=1;container=1;collapsible=0;recursiveResize=0;outlineConnect=0;rounded=1;shadow=0;comic=0;labelBackgroundColor=none;strokeWidth=1;fontFamily=Verdana;fontSize=12;align=center;" vertex="1" parent="t-YoSb7FIt-wNIy6U0vz-1">
          <mxGeometry x="591" y="122" width="100" height="219" as="geometry" />
        </mxCell>
        <mxCell id="t-YoSb7FIt-wNIy6U0vz-11" value="Update [0x5000 1400 - 17FF]" style="endArrow=none;endFill=0;endSize=12;html=1;rounded=0;exitX=0.5;exitY=0.933;exitDx=0;exitDy=0;exitPerimeter=0;startFill=0;" edge="1" parent="t-YoSb7FIt-wNIy6U0vz-3">
          <mxGeometry x="0.0032" width="160" relative="1" as="geometry">
            <mxPoint x="49" y="136" as="sourcePoint" />
            <mxPoint x="-176" y="136.01" as="targetPoint" />
            <mxPoint as="offset" />
          </mxGeometry>
        </mxCell>
        <mxCell id="YYZ_FA172tAhD1S2uNox-22" value="" style="html=1;points=[];perimeter=orthogonalPerimeter;rounded=0;shadow=0;comic=0;labelBackgroundColor=none;strokeWidth=1;fontFamily=Verdana;fontSize=12;align=center;" vertex="1" parent="t-YoSb7FIt-wNIy6U0vz-3">
          <mxGeometry x="45" y="124" width="10" height="21" as="geometry" />
        </mxCell>
        <mxCell id="t-YoSb7FIt-wNIy6U0vz-8" value="MCU" style="shape=umlLifeline;perimeter=lifelinePerimeter;whiteSpace=wrap;html=1;container=1;collapsible=0;recursiveResize=0;outlineConnect=0;rounded=1;shadow=0;comic=0;labelBackgroundColor=none;strokeWidth=1;fontFamily=Verdana;fontSize=12;align=center;" vertex="1" parent="t-YoSb7FIt-wNIy6U0vz-1">
          <mxGeometry x="79" y="122" width="100" height="219" as="geometry" />
        </mxCell>
        <mxCell id="YYZ_FA172tAhD1S2uNox-2" value="" style="html=1;points=[[0,0,0,0,5],[0,1,0,0,-5],[1,0,0,0,5],[1,1,0,0,-5]];perimeter=orthogonalPerimeter;outlineConnect=0;targetShapes=umlLifeline;portConstraint=eastwest;newEdgeStyle={&quot;curved&quot;:0,&quot;rounded&quot;:0};" vertex="1" parent="t-YoSb7FIt-wNIy6U0vz-8">
          <mxGeometry x="45" y="68" width="10" height="42" as="geometry" />
        </mxCell>
        <mxCell id="YYZ_FA172tAhD1S2uNox-3" value="dispatch" style="html=1;verticalAlign=bottom;startArrow=oval;endArrow=block;startSize=8;curved=0;rounded=0;entryX=0;entryY=0;entryDx=0;entryDy=5;" edge="1" target="YYZ_FA172tAhD1S2uNox-2" parent="t-YoSb7FIt-wNIy6U0vz-8">
          <mxGeometry relative="1" as="geometry">
            <mxPoint x="-25" y="73" as="sourcePoint" />
          </mxGeometry>
        </mxCell>
        <mxCell id="t-YoSb7FIt-wNIy6U0vz-24" value="&lt;h1 style=&quot;margin-top: 0px;&quot;&gt;MCU Software Concept Model&lt;/h1&gt;" style="text;html=1;whiteSpace=wrap;overflow=hidden;rounded=0;" vertex="1" parent="t-YoSb7FIt-wNIy6U0vz-1">
          <mxGeometry x="40" y="20" width="380" height="50" as="geometry" />
        </mxCell>
        <mxCell id="YYZ_FA172tAhD1S2uNox-0" value="&lt;font&gt;- Polling (main, thread, 非同期)&lt;/font&gt;" style="text;html=1;align=left;verticalAlign=middle;whiteSpace=wrap;rounded=0;fontStyle=1;fontSize=15;" vertex="1" parent="t-YoSb7FIt-wNIy6U0vz-1">
          <mxGeometry x="40" y="81" width="360" height="30" as="geometry" />
        </mxCell>
        <mxCell id="YYZ_FA172tAhD1S2uNox-1" value="&lt;font&gt;- ISR (割り込み, handler, 同期)&lt;/font&gt;" style="text;html=1;align=left;verticalAlign=middle;whiteSpace=wrap;rounded=0;fontStyle=1;fontSize=15;" vertex="1" parent="t-YoSb7FIt-wNIy6U0vz-1">
          <mxGeometry x="40" y="361" width="380" height="30" as="geometry" />
        </mxCell>
        <mxCell id="YYZ_FA172tAhD1S2uNox-9" value="Read [0x5000 1400 - 17FF]" style="endArrow=block;dashed=1;endFill=0;endSize=12;html=1;rounded=0;" edge="1" parent="t-YoSb7FIt-wNIy6U0vz-1">
          <mxGeometry x="-0.0631" y="10" width="160" relative="1" as="geometry">
            <mxPoint x="134" y="202" as="sourcePoint" />
            <mxPoint x="409" y="202" as="targetPoint" />
            <mxPoint as="offset" />
          </mxGeometry>
        </mxCell>
        <mxCell id="YYZ_FA172tAhD1S2uNox-10" value="Memory" style="shape=umlLifeline;perimeter=lifelinePerimeter;whiteSpace=wrap;html=1;container=1;collapsible=0;recursiveResize=0;outlineConnect=0;rounded=1;shadow=0;comic=0;labelBackgroundColor=none;strokeWidth=1;fontFamily=Verdana;fontSize=12;align=center;" vertex="1" parent="t-YoSb7FIt-wNIy6U0vz-1">
          <mxGeometry x="360" y="401" width="100" height="240" as="geometry" />
        </mxCell>
        <mxCell id="YYZ_FA172tAhD1S2uNox-11" value="" style="html=1;points=[];perimeter=orthogonalPerimeter;rounded=0;shadow=0;comic=0;labelBackgroundColor=none;strokeWidth=1;fontFamily=Verdana;fontSize=12;align=center;" vertex="1" parent="YYZ_FA172tAhD1S2uNox-10">
          <mxGeometry x="45" y="122" width="10" height="21" as="geometry" />
        </mxCell>
        <mxCell id="YYZ_FA172tAhD1S2uNox-42" value="TIM7 ISR [0x0000_0088]" style="endArrow=none;endFill=1;endSize=12;html=1;rounded=0;exitX=0.5;exitY=0.933;exitDx=0;exitDy=0;exitPerimeter=0;startFill=0;" edge="1" parent="YYZ_FA172tAhD1S2uNox-10">
          <mxGeometry x="0.0032" width="160" relative="1" as="geometry">
            <mxPoint x="276" y="200" as="sourcePoint" />
            <mxPoint x="51" y="200.01" as="targetPoint" />
            <mxPoint as="offset" />
          </mxGeometry>
        </mxCell>
        <mxCell id="YYZ_FA172tAhD1S2uNox-13" value="TIM7" style="shape=umlLifeline;perimeter=lifelinePerimeter;whiteSpace=wrap;html=1;container=1;collapsible=0;recursiveResize=0;outlineConnect=0;rounded=1;shadow=0;comic=0;labelBackgroundColor=none;strokeWidth=1;fontFamily=Verdana;fontSize=12;align=center;" vertex="1" parent="t-YoSb7FIt-wNIy6U0vz-1">
          <mxGeometry x="591" y="401" width="100" height="240" as="geometry" />
        </mxCell>
        <mxCell id="YYZ_FA172tAhD1S2uNox-14" value="Timer Expired" style="endArrow=none;endFill=1;endSize=12;html=1;rounded=0;exitX=0.5;exitY=0.933;exitDx=0;exitDy=0;exitPerimeter=0;startFill=0;" edge="1" parent="YYZ_FA172tAhD1S2uNox-13">
          <mxGeometry x="0.0032" width="160" relative="1" as="geometry">
            <mxPoint x="49" y="178" as="sourcePoint" />
            <mxPoint x="-176" y="178.01" as="targetPoint" />
            <mxPoint as="offset" />
          </mxGeometry>
        </mxCell>
        <mxCell id="YYZ_FA172tAhD1S2uNox-21" value="Start [0x5000 1400 - 17FF]" style="endArrow=none;endFill=1;endSize=12;html=1;rounded=0;exitX=0.5;exitY=0.933;exitDx=0;exitDy=0;exitPerimeter=0;startFill=0;" edge="1" parent="YYZ_FA172tAhD1S2uNox-13">
          <mxGeometry x="0.0032" width="160" relative="1" as="geometry">
            <mxPoint x="49" y="132" as="sourcePoint" />
            <mxPoint x="-176" y="132.01" as="targetPoint" />
            <mxPoint as="offset" />
          </mxGeometry>
        </mxCell>
        <mxCell id="YYZ_FA172tAhD1S2uNox-23" value="" style="html=1;points=[];perimeter=orthogonalPerimeter;rounded=0;shadow=0;comic=0;labelBackgroundColor=none;strokeWidth=1;fontFamily=Verdana;fontSize=12;align=center;" vertex="1" parent="YYZ_FA172tAhD1S2uNox-13">
          <mxGeometry x="45" y="126" width="10" height="21" as="geometry" />
        </mxCell>
        <mxCell id="YYZ_FA172tAhD1S2uNox-35" value="" style="html=1;points=[];perimeter=orthogonalPerimeter;rounded=0;shadow=0;comic=0;labelBackgroundColor=none;strokeWidth=1;fontFamily=Verdana;fontSize=12;align=center;" vertex="1" parent="YYZ_FA172tAhD1S2uNox-13">
          <mxGeometry x="45" y="171" width="10" height="39" as="geometry" />
        </mxCell>
        <mxCell id="YYZ_FA172tAhD1S2uNox-15" value="MCU" style="shape=umlLifeline;perimeter=lifelinePerimeter;whiteSpace=wrap;html=1;container=1;collapsible=0;recursiveResize=0;outlineConnect=0;rounded=1;shadow=0;comic=0;labelBackgroundColor=none;strokeWidth=1;fontFamily=Verdana;fontSize=12;align=center;" vertex="1" parent="t-YoSb7FIt-wNIy6U0vz-1">
          <mxGeometry x="79" y="401" width="100" height="240" as="geometry" />
        </mxCell>
        <mxCell id="YYZ_FA172tAhD1S2uNox-16" value="" style="html=1;points=[[0,0,0,0,5],[0,1,0,0,-5],[1,0,0,0,5],[1,1,0,0,-5]];perimeter=orthogonalPerimeter;outlineConnect=0;targetShapes=umlLifeline;portConstraint=eastwest;newEdgeStyle={&quot;curved&quot;:0,&quot;rounded&quot;:0};" vertex="1" parent="YYZ_FA172tAhD1S2uNox-15">
          <mxGeometry x="45" y="109" width="10" height="42" as="geometry" />
        </mxCell>
        <mxCell id="YYZ_FA172tAhD1S2uNox-17" value="dispatch" style="html=1;verticalAlign=bottom;startArrow=oval;endArrow=block;startSize=8;curved=0;rounded=0;entryX=0;entryY=0;entryDx=0;entryDy=5;" edge="1" parent="YYZ_FA172tAhD1S2uNox-15" target="YYZ_FA172tAhD1S2uNox-16">
          <mxGeometry relative="1" as="geometry">
            <mxPoint x="-25" y="114" as="sourcePoint" />
          </mxGeometry>
        </mxCell>
        <mxCell id="YYZ_FA172tAhD1S2uNox-39" value="entry" style="html=1;verticalAlign=bottom;startArrow=oval;endArrow=block;startSize=8;curved=0;rounded=0;entryX=0;entryY=0;entryDx=0;entryDy=5;" edge="1" parent="YYZ_FA172tAhD1S2uNox-15">
          <mxGeometry relative="1" as="geometry">
            <mxPoint x="-25" y="65" as="sourcePoint" />
            <mxPoint x="45" y="65" as="targetPoint" />
          </mxGeometry>
        </mxCell>
        <mxCell id="YYZ_FA172tAhD1S2uNox-18" value="Start [0x5000 1400 - 17FF]" style="endArrow=block;endFill=1;endSize=12;html=1;rounded=0;" edge="1" parent="t-YoSb7FIt-wNIy6U0vz-1">
          <mxGeometry x="-0.0631" y="10" width="160" relative="1" as="geometry">
            <mxPoint x="134" y="522" as="sourcePoint" />
            <mxPoint x="409" y="522" as="targetPoint" />
            <mxPoint as="offset" />
          </mxGeometry>
        </mxCell>
        <mxCell id="YYZ_FA172tAhD1S2uNox-24" value="" style="html=1;points=[];perimeter=orthogonalPerimeter;rounded=0;shadow=0;comic=0;labelBackgroundColor=none;strokeWidth=1;fontFamily=Verdana;fontSize=12;align=center;" vertex="1" parent="t-YoSb7FIt-wNIy6U0vz-1">
          <mxGeometry x="406" y="251" width="10" height="21" as="geometry" />
        </mxCell>
        <mxCell id="YYZ_FA172tAhD1S2uNox-29" value="" style="html=1;points=[];perimeter=orthogonalPerimeter;rounded=0;shadow=0;comic=0;labelBackgroundColor=none;strokeWidth=1;fontFamily=Verdana;fontSize=12;align=center;" vertex="1" parent="t-YoSb7FIt-wNIy6U0vz-1">
          <mxGeometry x="406" y="291" width="10" height="21" as="geometry" />
        </mxCell>
        <mxCell id="YYZ_FA172tAhD1S2uNox-30" value="" style="html=1;points=[[0,0,0,0,5],[0,1,0,0,-5],[1,0,0,0,5],[1,1,0,0,-5]];perimeter=orthogonalPerimeter;outlineConnect=0;targetShapes=umlLifeline;portConstraint=eastwest;newEdgeStyle={&quot;curved&quot;:0,&quot;rounded&quot;:0};" vertex="1" parent="t-YoSb7FIt-wNIy6U0vz-1">
          <mxGeometry x="125" y="278" width="10" height="42" as="geometry" />
        </mxCell>
        <mxCell id="YYZ_FA172tAhD1S2uNox-31" value="dispatch" style="html=1;verticalAlign=bottom;startArrow=oval;endArrow=block;startSize=8;curved=0;rounded=0;entryX=0;entryY=0;entryDx=0;entryDy=5;" edge="1" parent="t-YoSb7FIt-wNIy6U0vz-1" target="YYZ_FA172tAhD1S2uNox-30">
          <mxGeometry relative="1" as="geometry">
            <mxPoint x="55" y="283" as="sourcePoint" />
          </mxGeometry>
        </mxCell>
        <mxCell id="YYZ_FA172tAhD1S2uNox-32" value="Read [0x5000 1400 - 17FF]" style="endArrow=block;dashed=1;endFill=0;endSize=12;html=1;rounded=0;" edge="1" parent="t-YoSb7FIt-wNIy6U0vz-1">
          <mxGeometry x="-0.0631" y="10" width="160" relative="1" as="geometry">
            <mxPoint x="135" y="290" as="sourcePoint" />
            <mxPoint x="410" y="290" as="targetPoint" />
            <mxPoint as="offset" />
          </mxGeometry>
        </mxCell>
        <mxCell id="YYZ_FA172tAhD1S2uNox-34" value="" style="html=1;points=[];perimeter=orthogonalPerimeter;rounded=0;shadow=0;comic=0;labelBackgroundColor=none;strokeWidth=1;fontFamily=Verdana;fontSize=12;align=center;" vertex="1" parent="t-YoSb7FIt-wNIy6U0vz-1">
          <mxGeometry x="406" y="571" width="10" height="40" as="geometry" />
        </mxCell>
        <mxCell id="YYZ_FA172tAhD1S2uNox-36" value="Implement TIM7 ISR [&lt;span style=&quot;color: rgba(0, 0, 0, 0); font-family: monospace; font-size: 0px; text-align: start; background-color: rgb(251, 251, 251);&quot;&gt;&lt;span style=&quot;color: rgb(0, 0, 0); font-family: Helvetica; font-size: 11px; text-align: center; background-color: rgb(255, 255, 255);&quot;&gt;0x0000_0088]&lt;/span&gt;%3CmxGraphModel%3E%3Croot%3E%3CmxCell%20id%3D%220%22%2F%3E%3CmxCell%20id%3D%221%22%20parent%3D%220%22%2F%3E%3CmxCell%20id%3D%222%22%20value%3D%22%22%20style%3D%22html%3D1%3Bpoints%3D%5B%5D%3Bperimeter%3DorthogonalPerimeter%3Brounded%3D0%3Bshadow%3D0%3Bcomic%3D0%3BlabelBackgroundColor%3Dnone%3BstrokeWidth%3D1%3BfontFamily%3DVerdana%3BfontSize%3D12%3Balign%3Dcenter%3B%22%20vertex%3D%221%22%20parent%3D%221%22%3E%3CmxGeometry%20x%3D%22636%22%20y%3D%22525%22%20width%3D%2210%22%20height%3D%2221%22%20as%3D%22geometry%22%2F%3E%3C%2FmxCell%3E%3C%2Froot%3E%3C%2FmxGraphModel%3E&lt;/span&gt;" style="endArrow=block;endFill=1;endSize=12;html=1;rounded=0;" edge="1" parent="t-YoSb7FIt-wNIy6U0vz-1">
          <mxGeometry width="160" relative="1" as="geometry">
            <mxPoint x="131" y="474" as="sourcePoint" />
            <mxPoint x="409.5" y="474" as="targetPoint" />
          </mxGeometry>
        </mxCell>
        <mxCell id="YYZ_FA172tAhD1S2uNox-40" value="" style="html=1;points=[[0,0,0,0,5],[0,1,0,0,-5],[1,0,0,0,5],[1,1,0,0,-5]];perimeter=orthogonalPerimeter;outlineConnect=0;targetShapes=umlLifeline;portConstraint=eastwest;newEdgeStyle={&quot;curved&quot;:0,&quot;rounded&quot;:0};" vertex="1" parent="t-YoSb7FIt-wNIy6U0vz-1">
          <mxGeometry x="124" y="461" width="10" height="30" as="geometry" />
        </mxCell>
      </root>
    </mxGraphModel>
  </diagram>
</mxfile>
